<?xml version="1.0" encoding="utf-8"?><svg xmlns="http://www.w3.org/2000/svg" width="36.675" height="40.114" viewBox="0 0 36.675 40.114">
  <g id="Group_100" data-name="Group 100" transform="translate(-92.137 -120.645)">
    <path id="Path_165" data-name="Path 165" d="M108.185,123.812a5.271,5.271,0,0,0-9.665,0H92.137v4.223H98.52a5.271,5.271,0,0,0,9.665,0h20.627v-4.223Z" fill="#0141ff"/>
    <path id="Path_166" data-name="Path 166" d="M117.6,169.039a5.276,5.276,0,0,0-4.836,3.173H92.137v4.223H112.77a5.27,5.27,0,0,0,9.658,0h6.384v-4.223h-6.377A5.275,5.275,0,0,0,117.6,169.039Z" transform="translate(0 -33.615)" fill="#0141ff"/>
    <path id="Path_167" data-name="Path 167" d="M106.914,217.433a5.275,5.275,0,0,0-4.83,3.163H92.137v4.223h9.942a5.271,5.271,0,0,0,9.67,0h17.063V220.6H111.744A5.275,5.275,0,0,0,106.914,217.433Z" transform="translate(0 -67.23)" fill="#0141ff"/>
  </g>
</svg>
