<?xml version="1.0" encoding="utf-8"?><svg xmlns="http://www.w3.org/2000/svg" viewBox="0 0 223 122"><defs><style>.cls-1{fill:none;}.cls-2{fill:#2f2f30;}.cls-3{fill:#cbbca8;}.cls-4{fill:#6f6e6e;}.cls-5{fill:#c78976;}.cls-6{fill:#323232;}.cls-7{fill:#c3c3c3;}.cls-8{fill:#8f9090;}.cls-9{fill:#4e4d4d;}.cls-10{fill:#b7b7b7;}</style></defs><g id="Lager_2" data-name="Lager 2"><g id="Lager_1-2" data-name="Lager 1"><polygon class="cls-1" points="109 64 109 61 111 61 111 58 107 58 107 54 109 54 109 51 109 48 192 48 192 51 192 54 190 54 190 58 194 58 194 61 192 61 192 64 219 64 219 22 3 22 3 64 109 64"/><polygon class="cls-1" points="37 111 41.315 111 37 75.86 37 111"/><polygon class="cls-1" points="12 71 20 71 28 71 37 71 37 71.834 44.846 70.871 49.706 110.453 45.248 111 219 111 219 69 3 69 3 71 12 71"/><rect class="cls-2" x="219" y="69" width="4" height="42"/><rect class="cls-2" x="219" y="22" width="4" height="42"/><rect class="cls-2" x="219" width="4" height="17"/><rect class="cls-2" x="219" y="116" width="4" height="6"/><rect class="cls-2" width="3" height="17"/><rect class="cls-2" y="116" width="3" height="6"/><polygon class="cls-2" points="3 71 3 69 0 69 0 111 3 111 3 71"/><rect class="cls-2" y="22" width="3" height="42"/><polygon class="cls-3" points="192 64 109 64 3 64 0 64 0 69 3 69 219 69 223 69 223 64 219 64 192 64"/><polygon class="cls-3" points="3 17 0 17 0 22 3 22 219 22 223 22 223 17 219 17 3 17"/><polygon class="cls-3" points="45.248 111 41.373 111.476 41.315 111 37 111 28 111 20 111 12 111 3 111 0 111 0 116 3 116 219 116 223 116 223 111 219 111 45.248 111"/><rect class="cls-4" x="3" y="71" width="9" height="40"/><rect class="cls-5" x="12" y="71" width="8" height="40"/><rect class="cls-4" x="20" y="71" width="8" height="40"/><polygon class="cls-6" points="36.513 71.894 37 71.834 37 71 28 71 28 111 37 111 37 75.86 36.513 71.894"/><polygon class="cls-4" points="44.846 70.871 37 71.834 36.513 71.894 37 75.86 41.315 111 41.373 111.476 45.248 111 49.706 110.453 44.846 70.871"/><polygon class="cls-7" points="194 61 194 58 190 58 111 58 111 61 192 61 194 61"/><polygon class="cls-5" points="190 54 109 54 107 54 107 58 111 58 190 58 190 54"/><polygon class="cls-8" points="111 61 109 61 109 64 192 64 192 61 111 61"/><polygon class="cls-9" points="192 54 192 51 109 51 109 54 190 54 192 54"/><rect class="cls-10" x="109" y="48" width="83" height="3"/></g></g></svg>