<?xml version="1.0" encoding="utf-8"?><svg xmlns="http://www.w3.org/2000/svg" xmlns:xlink="http://www.w3.org/1999/xlink" viewBox="0 0 218.312 389.612"><defs><style>.cls-1{fill:none;}.cls-2{fill:#254948;}.cls-3{fill:#273f3e;}.cls-4{fill:#fdc506;}.cls-5{fill:#ed6998;}.cls-6,.cls-7,.cls-8{opacity:0.153;isolation:isolate;}.cls-6{fill:url(#Namnlös_övertoning_2);}.cls-7{fill:url(#Namnlös_övertoning_2-2);}.cls-8{fill:url(#Namnlös_övertoning_2-3);}</style><linearGradient id="Namnlös_övertoning_2" x1="-668.6735" y1="420.3578" x2="-668.2895" y2="419.6528" gradientTransform="matrix(218.312, 0, 0, -292.014, 146009.624, 122902.851)" gradientUnits="userSpaceOnUse"><stop offset="0" stop-color="#ea4e80"/><stop offset="0.537" stop-color="#fdc40c" stop-opacity="0.584"/><stop offset="1" stop-color="#fdc40c" stop-opacity="0"/></linearGradient><linearGradient id="Namnlös_övertoning_2-2" x1="-668.3937" y1="420.5102" x2="-668.0097" y2="419.8052" xlink:href="#Namnlös_övertoning_2"/><linearGradient id="Namnlös_övertoning_2-3" x1="-668.287" y1="420.5683" x2="-667.903" y2="419.8633" xlink:href="#Namnlös_övertoning_2"/></defs><g id="Lager_2" data-name="Lager 2"><g id="Lager_1-2" data-name="Lager 1"><path class="cls-1" d="M102.2777,101.0309A80.0923,80.0923,0,0,1,89.731,99.52,69.1869,69.1869,0,0,0,102.2777,101.0309Z"/><rect class="cls-2" x="109.305" width="1.388" height="55.939"/><path class="cls-3" d="M116.7705,61.2526a7.0972,7.0972,0,0,0-6.2-5.0257q-.2981-.0251-.5972-.0249a6.8054,6.8054,0,0,0-6.8331,5.01,24.841,24.841,0,0,1,13.63.0406Z"/><path class="cls-4" d="M102.2777,101.0309c2.06.096,4.3522.1528,6.9093.1561,16.3316.0211,22.6851-2.01,24.6852-2.9008.8674-.4377,1.3448-.9063,1.3448-1.3942,0-.023-.0081-.0456-.01-.0685-1.7023-2.3668-12.6455-4.1545-25.09-4.1545-14.0757,0-25.4929,1.9044-25.5628,4.2584a1.3446,1.3446,0,0,0,.6509.9438A15.1012,15.1012,0,0,0,89.731,99.52,80.0923,80.0923,0,0,0,102.2777,101.0309Z"/><path class="cls-4" d="M84.549,96.892l.002.0133v-.0265Z"/><path class="cls-5" d="M110.117,92.669c12.4443,0,23.3875,1.7877,25.09,4.1545l.01.0105V85.613a25.333,25.333,0,0,0-50.666.003V96.949c0-.0073.003-.0144.0032-.0216C84.6241,94.5734,96.0413,92.669,110.117,92.669Z"/><path class="cls-6" d="M0,389.612H218.312L134.652,97.876a4.7155,4.7155,0,0,1-.78.41c-3.3919,1.7117-12.847,2.9438-23.9892,2.9438-2.65,0-5.2044-.07-7.6053-.1991A69.1869,69.1869,0,0,1,89.731,99.52a13.1591,13.1591,0,0,1-4.5259-1.6488,2.3361,2.3361,0,0,1-.3671-.2732Z"/><path class="cls-4" d="M85.2051,97.8712A13.1591,13.1591,0,0,0,89.731,99.52,15.1012,15.1012,0,0,1,85.2051,97.8712Z"/><path class="cls-7" d="M85.2051,97.8712A13.1591,13.1591,0,0,0,89.731,99.52,15.1012,15.1012,0,0,1,85.2051,97.8712Z"/><path class="cls-4" d="M102.2777,101.0309c2.4009.1292,4.9552.1991,7.6053.1991,11.1422,0,20.5973-1.2321,23.9892-2.9438-2,.8909-8.3536,2.9219-24.6852,2.9008C106.63,101.1837,104.3378,101.1269,102.2777,101.0309Z"/><path class="cls-8" d="M102.2777,101.0309c2.4009.1292,4.9552.1991,7.6053.1991,11.1422,0,20.5973-1.2321,23.9892-2.9438-2,.8909-8.3536,2.9219-24.6852,2.9008C106.63,101.1837,104.3378,101.1269,102.2777,101.0309Z"/></g></g></svg>