<svg xmlns="http://www.w3.org/2000/svg" viewBox="0 0 96.2642 71.6092"><defs><style>.cls-1{fill:#10141c;}</style></defs><g id="Lager_2" data-name="Lager 2"><g id="Lager_1-2" data-name="Lager 1"><path class="cls-1" d="M90.3641,6.95Q84.46.0022,74.7557,0A19.4822,19.4822,0,0,0,60.9852,5.2448a17.7681,17.7681,0,0,0-5.64,13.64A19.4149,19.4149,0,0,0,60.46,32.394q5.1167,5.6451,14.2956,7.738l5.5094,1.3128a45.7349,45.7349,0,0,1-6.0345,16.2616,41.27,41.27,0,0,1-9.7041,10.7543L66.1,71.6092A55.1755,55.1755,0,0,0,87.6083,52.5918,47.7766,47.7766,0,0,0,96.2642,25.18Q96.2642,13.906,90.3641,6.95Z"/><path class="cls-1" d="M19.4112,0A19.4792,19.4792,0,0,0,5.64,5.2448,17.7716,17.7716,0,0,0,0,18.885,19.4112,19.4112,0,0,0,5.1156,32.394q5.1152,5.6451,14.2956,7.738l5.5074,1.3128a45.7762,45.7762,0,0,1-6.0325,16.2616A41.29,41.29,0,0,1,9.181,68.4607l1.5732,3.1485a55.2,55.2,0,0,0,21.51-19.0174A47.7921,47.7921,0,0,0,40.92,25.18q0-11.274-5.9022-18.23Q29.1164.0022,19.4112,0Z"/></g></g></svg>